<svg width="161" height="87" viewBox="0 0 161 87" fill="none" xmlns="http://www.w3.org/2000/svg">
<path d="M49.3652 17.2V62H38.9972V43.632H18.6451V62H8.27715V17.2H18.6451V34.864H38.9972V17.2H49.3652ZM79.3566 17.2C83.3247 17.2 86.7593 17.8613 89.6607 19.184C92.6047 20.5067 94.866 22.384 96.4447 24.816C98.0233 27.248 98.8127 30.128 98.8127 33.456C98.8127 36.7413 98.0233 39.6213 96.4447 42.096C94.866 44.528 92.6047 46.4053 89.6607 47.728C86.7593 49.008 83.3247 49.648 79.3566 49.648H70.3326V62H59.9646V17.2H79.3566ZM78.7806 41.2C81.8953 41.2 84.2633 40.5387 85.8847 39.216C87.506 37.8507 88.3167 35.9307 88.3167 33.456C88.3167 30.9387 87.506 29.0187 85.8847 27.696C84.2633 26.3307 81.8953 25.648 78.7806 25.648H70.3326V41.2H78.7806ZM114.245 25.648H99.9086V17.2H138.949V25.648H124.613V62H114.245V25.648Z" fill="#71C4AE"/>
<path d="M49.3652 17.2H51.3652V15.2H49.3652V17.2ZM49.3652 62V64H51.3652V62H49.3652ZM38.9972 62H36.9972V64H38.9972V62ZM38.9972 43.632H40.9972V41.632H38.9972V43.632ZM18.6451 43.632V41.632H16.6451V43.632H18.6451ZM18.6451 62V64H20.6451V62H18.6451ZM8.27715 62H6.27715V64H8.27715V62ZM8.27715 17.2V15.2H6.27715V17.2H8.27715ZM18.6451 17.2H20.6451V15.2H18.6451V17.2ZM18.6451 34.864H16.6451V36.864H18.6451V34.864ZM38.9972 34.864V36.864H40.9972V34.864H38.9972ZM38.9972 17.2V15.2H36.9972V17.2H38.9972ZM47.3652 17.2V62H51.3652V17.2H47.3652ZM49.3652 60H38.9972V64H49.3652V60ZM40.9972 62V43.632H36.9972V62H40.9972ZM38.9972 41.632H18.6451V45.632H38.9972V41.632ZM16.6451 43.632V62H20.6451V43.632H16.6451ZM18.6451 60H8.27715V64H18.6451V60ZM10.2771 62V17.2H6.27715V62H10.2771ZM8.27715 19.2H18.6451V15.2H8.27715V19.2ZM16.6451 17.2V34.864H20.6451V17.2H16.6451ZM18.6451 36.864H38.9972V32.864H18.6451V36.864ZM40.9972 34.864V17.2H36.9972V34.864H40.9972ZM38.9972 19.2H49.3652V15.2H38.9972V19.2ZM89.6607 19.184L88.831 21.0038L88.841 21.0083L89.6607 19.184ZM96.4447 42.096L98.1222 43.1849L98.1265 43.1783L98.1308 43.1716L96.4447 42.096ZM89.6607 47.728L90.468 49.5579L90.4803 49.5523L89.6607 47.728ZM70.3326 49.648V47.648H68.3326V49.648H70.3326ZM70.3326 62V64H72.3326V62H70.3326ZM59.9646 62H57.9646V64H59.9646V62ZM59.9646 17.2V15.2H57.9646V17.2H59.9646ZM85.8847 39.216L87.1489 40.7657L87.161 40.7559L87.1729 40.7458L85.8847 39.216ZM85.8847 27.696L84.5964 29.2258L84.6083 29.2359L84.6204 29.2457L85.8847 27.696ZM70.3326 25.648V23.648H68.3326V25.648H70.3326ZM70.3326 41.2H68.3326V43.2H70.3326V41.2ZM79.3566 19.2C83.1064 19.2 86.2457 19.8252 88.831 21.0038L90.4903 17.3642C87.273 15.8975 83.5429 15.2 79.3566 15.2V19.2ZM88.841 21.0083C91.4753 22.1919 93.421 23.8312 94.7671 25.9049L98.1222 23.7271C96.311 20.9368 93.734 18.8215 90.4803 17.3597L88.841 21.0083ZM94.7671 25.9049C96.1055 27.9669 96.8127 30.4559 96.8127 33.456H100.813C100.813 29.8001 99.9411 26.5291 98.1222 23.7271L94.7671 25.9049ZM96.8127 33.456C96.8127 36.4071 96.1084 38.9044 94.7585 41.0204L98.1308 43.1716C99.9383 40.3383 100.813 37.0756 100.813 33.456H96.8127ZM94.7671 41.0071C93.421 43.0808 91.4753 44.7201 88.841 45.9037L90.4803 49.5523C93.734 48.0905 96.311 45.9752 98.1222 43.1849L94.7671 41.0071ZM88.8534 45.8982C86.2618 47.0415 83.1143 47.648 79.3566 47.648V51.648C83.535 51.648 87.2569 50.9745 90.4679 49.5578L88.8534 45.8982ZM79.3566 47.648H70.3326V51.648H79.3566V47.648ZM68.3326 49.648V62H72.3326V49.648H68.3326ZM70.3326 60H59.9646V64H70.3326V60ZM61.9646 62V17.2H57.9646V62H61.9646ZM59.9646 19.2H79.3566V15.2H59.9646V19.2ZM78.7806 43.2C82.1392 43.2 85.0326 42.4922 87.1489 40.7657L84.6204 37.6663C83.494 38.5851 81.6514 39.2 78.7806 39.2V43.2ZM87.1729 40.7458C89.3232 38.935 90.3167 36.4109 90.3167 33.456H86.3167C86.3167 35.4505 85.6887 36.7663 84.5964 37.6862L87.1729 40.7458ZM90.3167 33.456C90.3167 30.4728 89.3312 27.9266 87.1489 26.1463L84.6204 29.2457C85.6807 30.1107 86.3167 31.4045 86.3167 33.456H90.3167ZM87.1729 26.1662C85.055 24.3826 82.1516 23.648 78.7806 23.648V27.648C81.639 27.648 83.4717 28.2787 84.5964 29.2258L87.1729 26.1662ZM78.7806 23.648H70.3326V27.648H78.7806V23.648ZM68.3326 25.648V41.2H72.3326V25.648H68.3326ZM70.3326 43.2H78.7806V39.2H70.3326V43.2ZM114.245 25.648H116.245V23.648H114.245V25.648ZM99.9086 25.648H97.9086V27.648H99.9086V25.648ZM99.9086 17.2V15.2H97.9086V17.2H99.9086ZM138.949 17.2H140.949V15.2H138.949V17.2ZM138.949 25.648V27.648H140.949V25.648H138.949ZM124.613 25.648V23.648H122.613V25.648H124.613ZM124.613 62V64H126.613V62H124.613ZM114.245 62H112.245V64H114.245V62ZM114.245 23.648H99.9086V27.648H114.245V23.648ZM101.909 25.648V17.2H97.9086V25.648H101.909ZM99.9086 19.2H138.949V15.2H99.9086V19.2ZM136.949 17.2V25.648H140.949V17.2H136.949ZM138.949 23.648H124.613V27.648H138.949V23.648ZM122.613 25.648V62H126.613V25.648H122.613ZM124.613 60H114.245V64H124.613V60ZM116.245 62V25.648H112.245V62H116.245Z" fill="black"/>
<path d="M17.4 60.2V77H13.512V70.112H5.88V77H1.992V60.2H5.88V66.824H13.512V60.2H17.4ZM35.1268 64.088L29.2948 77.792C28.7028 79.28 27.9668 80.328 27.0868 80.936C26.2228 81.544 25.1748 81.848 23.9428 81.848C23.2708 81.848 22.6068 81.744 21.9508 81.536C21.2948 81.328 20.7588 81.04 20.3428 80.672L21.7108 78.008C21.9988 78.264 22.3268 78.464 22.6948 78.608C23.0788 78.752 23.4548 78.824 23.8228 78.824C24.3348 78.824 24.7508 78.696 25.0708 78.44C25.3908 78.2 25.6788 77.792 25.9348 77.216L25.9828 77.096L20.3908 64.088H24.2548L27.8788 72.848L31.5268 64.088H35.1268ZM50.655 59.192V77H47.079V75.512C46.151 76.632 44.807 77.192 43.047 77.192C41.831 77.192 40.727 76.92 39.735 76.376C38.759 75.832 37.991 75.056 37.431 74.048C36.871 73.04 36.591 71.872 36.591 70.544C36.591 69.216 36.871 68.048 37.431 67.04C37.991 66.032 38.759 65.256 39.735 64.712C40.727 64.168 41.831 63.896 43.047 63.896C44.695 63.896 45.983 64.416 46.911 65.456V59.192H50.655ZM43.695 74.12C44.639 74.12 45.423 73.8 46.047 73.16C46.671 72.504 46.983 71.632 46.983 70.544C46.983 69.456 46.671 68.592 46.047 67.952C45.423 67.296 44.639 66.968 43.695 66.968C42.735 66.968 41.943 67.296 41.319 67.952C40.695 68.592 40.383 69.456 40.383 70.544C40.383 71.632 40.695 72.504 41.319 73.16C41.943 73.8 42.735 74.12 43.695 74.12ZM67.9682 70.592C67.9682 70.64 67.9442 70.976 67.8962 71.6H58.1282C58.3042 72.4 58.7202 73.032 59.3762 73.496C60.0322 73.96 60.8482 74.192 61.8242 74.192C62.4962 74.192 63.0882 74.096 63.6002 73.904C64.1282 73.696 64.6162 73.376 65.0642 72.944L67.0562 75.104C65.8402 76.496 64.0642 77.192 61.7282 77.192C60.2722 77.192 58.9842 76.912 57.8642 76.352C56.7442 75.776 55.8802 74.984 55.2722 73.976C54.6642 72.968 54.3602 71.824 54.3602 70.544C54.3602 69.28 54.6562 68.144 55.2482 67.136C55.8562 66.112 56.6802 65.32 57.7202 64.76C58.7762 64.184 59.9522 63.896 61.2482 63.896C62.5122 63.896 63.6562 64.168 64.6802 64.712C65.7042 65.256 66.5042 66.04 67.0802 67.064C67.6722 68.072 67.9682 69.248 67.9682 70.592ZM61.2722 66.728C60.4242 66.728 59.7122 66.968 59.1362 67.448C58.5602 67.928 58.2082 68.584 58.0802 69.416H64.4402C64.3122 68.6 63.9602 67.952 63.3842 67.472C62.8082 66.976 62.1042 66.728 61.2722 66.728ZM87.1937 60.2C88.6817 60.2 89.9697 60.448 91.0577 60.944C92.1617 61.44 93.0097 62.144 93.6017 63.056C94.1937 63.968 94.4897 65.048 94.4897 66.296C94.4897 67.528 94.1937 68.608 93.6017 69.536C93.0097 70.448 92.1617 71.152 91.0577 71.648C89.9697 72.128 88.6817 72.368 87.1937 72.368H83.8097V77H79.9217V60.2H87.1937ZM86.9777 69.2C88.1457 69.2 89.0337 68.952 89.6417 68.456C90.2497 67.944 90.5537 67.224 90.5537 66.296C90.5537 65.352 90.2497 64.632 89.6417 64.136C89.0337 63.624 88.1457 63.368 86.9777 63.368H83.8097V69.2H86.9777ZM103.292 63.896C105.292 63.896 106.828 64.376 107.9 65.336C108.972 66.28 109.508 67.712 109.508 69.632V77H106.004V75.392C105.3 76.592 103.988 77.192 102.068 77.192C101.076 77.192 100.212 77.024 99.4762 76.688C98.7562 76.352 98.2042 75.888 97.8202 75.296C97.4362 74.704 97.2442 74.032 97.2442 73.28C97.2442 72.08 97.6922 71.136 98.5882 70.448C99.5002 69.76 100.9 69.416 102.788 69.416H105.764C105.764 68.6 105.516 67.976 105.02 67.544C104.524 67.096 103.78 66.872 102.788 66.872C102.1 66.872 101.42 66.984 100.748 67.208C100.092 67.416 99.5322 67.704 99.0682 68.072L97.7242 65.456C98.4282 64.96 99.2682 64.576 100.244 64.304C101.236 64.032 102.252 63.896 103.292 63.896ZM103.004 74.672C103.644 74.672 104.212 74.528 104.708 74.24C105.204 73.936 105.556 73.496 105.764 72.92V71.6H103.196C101.66 71.6 100.892 72.104 100.892 73.112C100.892 73.592 101.076 73.976 101.444 74.264C101.828 74.536 102.348 74.672 103.004 74.672ZM117.673 65.792C118.121 65.168 118.721 64.696 119.473 64.376C120.241 64.056 121.121 63.896 122.113 63.896V67.352C121.697 67.32 121.417 67.304 121.273 67.304C120.201 67.304 119.361 67.608 118.753 68.216C118.145 68.808 117.841 69.704 117.841 70.904V77H114.097V64.088H117.673V65.792ZM131.083 71.936L129.283 73.712V77H125.539V59.192H129.283V69.272L134.755 64.088H139.219L133.843 69.56L139.699 77H135.163L131.083 71.936Z" fill="#CFDA2C"/>
<path d="M153.313 17.1125L153.308 13.0805L155.684 13.0775L155.698 24.0575L153.322 24.0605L153.317 20.0285L143.093 20.0413L143.09 17.1253L153.313 17.1125ZM152.935 31.3179C152.937 32.5179 152.578 33.4844 151.859 34.2173C151.14 34.9622 150.073 35.3355 148.657 35.3373L143.113 35.3443L143.109 32.5363L148.221 32.5299C148.989 32.5289 149.559 32.3602 149.93 32.0237C150.314 31.6872 150.505 31.201 150.505 30.565C150.504 29.857 150.281 29.2933 149.836 28.8738C149.404 28.4544 148.756 28.2452 147.892 28.2463L143.104 28.2523L143.1 25.4443L156.456 25.4275L156.46 28.2355L151.78 28.2414C152.152 28.6129 152.435 29.0626 152.627 29.5903C152.832 30.1181 152.935 30.6939 152.935 31.3179ZM147.934 47.475C147.898 47.4751 147.646 47.4574 147.178 47.422L147.169 40.096C146.569 40.2287 146.095 40.5413 145.748 41.0338C145.4 41.5262 145.227 42.1384 145.228 42.8704C145.229 43.3744 145.301 43.8183 145.446 44.2021C145.602 44.598 145.843 44.9636 146.167 45.2992L144.549 46.7953C143.504 45.8846 142.98 44.5532 142.978 42.8012C142.977 41.7092 143.185 40.743 143.604 39.9025C144.035 39.0619 144.628 38.4132 145.384 37.9562C146.139 37.4993 146.997 37.2702 147.957 37.269C148.905 37.2678 149.757 37.4887 150.514 37.9318C151.282 38.3868 151.877 39.0041 152.298 39.7835C152.731 40.575 152.948 41.4567 152.95 42.4287C152.951 43.3767 152.748 44.235 152.341 45.0035C151.934 45.772 151.347 46.3727 150.579 46.8057C149.824 47.2507 148.942 47.4738 147.934 47.475ZM150.826 42.4494C150.825 41.8134 150.644 41.2796 150.284 40.8481C149.923 40.4165 149.431 40.1531 148.807 40.0579L148.813 44.8279C149.424 44.7312 149.91 44.4665 150.27 44.0341C150.641 43.6016 150.826 43.0734 150.826 42.4494ZM152.963 52.9805C152.965 54.4805 152.606 55.633 151.887 56.4379C151.18 57.2428 150.107 57.6461 148.667 57.6479L143.141 57.6549L143.138 55.0269L144.344 55.0253C143.443 54.4985 142.992 53.515 142.99 52.075C142.989 51.331 143.114 50.6829 143.365 50.1306C143.617 49.5902 143.964 49.1758 144.408 48.8873C144.851 48.5987 145.355 48.4541 145.919 48.4534C146.819 48.4522 147.528 48.7873 148.044 49.4587C148.561 50.142 148.821 51.1917 148.822 52.6077L148.825 54.8397C149.437 54.8389 149.905 54.6524 150.229 54.2799C150.564 53.9075 150.731 53.3493 150.73 52.6053C150.73 52.0893 150.645 51.5794 150.477 51.0756C150.32 50.5838 150.103 50.1641 149.827 49.8164L151.788 48.806C152.16 49.3335 152.449 49.9632 152.654 50.6949C152.859 51.4386 152.962 52.2005 152.963 52.9805ZM144.881 52.7747C144.881 53.2547 144.99 53.6805 145.206 54.0523C145.435 54.424 145.765 54.6876 146.197 54.843L147.187 54.8418L147.185 52.9158C147.183 51.7638 146.805 51.1882 146.049 51.1892C145.689 51.1896 145.401 51.328 145.185 51.6043C144.982 51.8925 144.88 52.2827 144.881 52.7747ZM143.62 66.4416C143.416 66.1659 143.259 65.8241 143.151 65.4162C143.054 65.0203 143.006 64.6004 143.005 64.1564C143.004 63.0044 143.296 62.11 143.884 61.4733C144.471 60.8486 145.335 60.5355 146.475 60.534L150.452 60.529L150.451 59.035L152.611 59.0323L152.612 60.5263L154.97 60.5234L154.974 63.3314L152.616 63.3343L152.619 65.7463L150.459 65.749L150.456 63.337L146.514 63.342C146.106 63.3425 145.788 63.4449 145.56 63.6492C145.345 63.8655 145.237 64.1656 145.238 64.5496C145.238 64.9936 145.359 65.3714 145.599 65.6831L143.62 66.4416ZM151.563 70.6899C152.032 71.0253 152.386 71.4749 152.627 72.0386C152.868 72.6143 152.989 73.2741 152.99 74.0181L150.398 74.0214C150.421 73.7094 150.433 73.4993 150.433 73.3913C150.432 72.5873 150.203 71.9576 149.746 71.5022C149.302 71.0468 148.63 70.8196 147.73 70.8207L143.158 70.8265L143.154 68.0185L152.838 68.0063L152.841 70.6883L151.563 70.6899ZM147.982 85.0922C147.946 85.0922 147.694 85.0745 147.226 85.0391L147.216 77.7131C146.616 77.8459 146.143 78.1585 145.795 78.6509C145.448 79.1434 145.275 79.7556 145.276 80.4876C145.276 80.9916 145.349 81.4355 145.493 81.8193C145.65 82.2151 145.89 82.5808 146.215 82.9164L144.597 84.4124C143.552 83.5017 143.028 82.1704 143.026 80.4184C143.024 79.3264 143.233 78.3601 143.652 77.5196C144.083 76.6791 144.676 76.0303 145.432 75.5734C146.187 75.1164 147.045 74.8874 148.005 74.8861C148.953 74.885 149.805 75.1059 150.562 75.5489C151.33 76.004 151.925 76.6212 152.346 77.4007C152.779 78.1922 152.996 79.0739 152.997 80.0459C152.998 80.9939 152.796 81.8521 152.388 82.6206C151.981 83.3892 151.394 83.9899 150.627 84.4229C149.871 84.8678 148.99 85.0909 147.982 85.0922ZM150.873 80.0665C150.872 79.4305 150.692 78.8968 150.331 78.4652C149.971 78.0337 149.478 77.7703 148.854 77.6751L148.86 82.4451C149.472 82.3483 149.958 82.0837 150.317 81.6512C150.689 81.2188 150.874 80.6905 150.873 80.0665Z" fill="#649CD3"/>
</svg>
